<?xml version="1.0" encoding="UTF-8" standalone="no"?>
<!-- Created with Inkscape (http://www.inkscape.org/) -->

<svg
   width="37.016464mm"
   height="40.408085mm"
   viewBox="0 0 37.016465 40.408085"
   version="1.1"
   id="svg1"
   xmlns="http://www.w3.org/2000/svg"
   xmlns:svg="http://www.w3.org/2000/svg">
  <defs
     id="defs1" />
  <g
     id="layer1"
     transform="translate(-57.735991,-126.47475)">
    <path
       style="fill:#1a1a1a;fill-opacity:1;stroke:#1a1a1a;stroke-width:0.177906"
       d="m 74.710793,166.59746 c -0.44137,-0.0941 -1.339604,-0.32717 -1.996078,-0.51794 l -1.193588,-0.34686 -1.197454,-1.70933 c -0.658598,-0.94013 -2.325144,-3.07455 -3.703436,-4.74314 -5.570993,-6.74439 -5.081721,-6.01743 -6.581024,-9.77814 -0.739419,-1.85469 -1.469798,-3.93573 -1.62306,-4.62453 -0.375158,-1.68605 -0.69791,-5.27343 -0.555919,-6.17905 0.40598,-2.58938 1.687006,-6.37928 3.032869,-8.97273 1.284504,-2.4752 1.105421,-2.42209 2.368602,-0.70234 2.304768,3.13782 4.302221,6.97506 4.601976,8.8407 0.125662,0.78211 0.255687,0.87612 0.615298,0.44487 0.374262,-0.44882 1.128068,-0.76645 2.794531,-1.17758 1.293681,-0.31916 2.105539,-0.38795 4.685596,-0.39705 3.564727,-0.0125 5.294294,0.28147 6.635769,1.12817 l 0.799324,0.5045 0.479255,-1.88358 c 0.756655,-2.97385 2.882373,-7.01637 4.820196,-9.16665 l 0.639783,-0.70993 0.735199,0.79866 c 1.648347,1.79065 3.256781,4.68201 3.970811,7.13802 0.615447,2.11691 0.837861,7.95253 0.380991,9.99631 -0.616881,2.75956 -4.157927,8.883 -8.790358,15.20092 -0.979742,1.33621 -2.324835,3.27299 -2.989097,4.30394 -0.925985,1.43715 -1.298154,1.87446 -1.595276,1.87446 -0.213142,0 -0.977384,0.19966 -1.698314,0.4437 -1.407679,0.47651 -3.100276,0.56215 -4.636596,0.2346 z"
       id="path2" />
    <g
       id="layer3">
      <ellipse
         style="fill:#808000;fill-opacity:1;stroke:#ffff00;stroke-width:0.115237"
         id="path6-1"
         cx="81.432892"
         cy="149.36742"
         rx="2.7350087"
         ry="2.8222108" />
      <ellipse
         style="fill:#808000;fill-opacity:1;stroke:#ffff00;stroke-width:0.115237"
         id="path6"
         cx="70.940422"
         cy="149.50087"
         rx="2.7350087"
         ry="2.8222108" />
      <ellipse
         style="fill:#1a1a1a;fill-opacity:1;stroke:#ffff00;stroke-width:0.13605"
         id="path7-8"
         cx="81.270691"
         cy="148.90659"
         rx="0.89125526"
         ry="1.8607779" />
    </g>
    <ellipse
       style="fill:#1a1a1a;fill-opacity:1;stroke:#ffff00;stroke-width:0.136066"
       id="path7"
       cx="70.992844"
       cy="149.05743"
       rx="0.89146686"
       ry="1.86077" />
  </g>
</svg>
